Simulation
nRows=16
nColumns=15
endheader
time  TH_x TH_y TH_z SC_y  SC_z  SC_x  AC_y  AC_z  AC_x  GH_y  GH_z  GH_yy  EL_x  PS_y
0.0  0.000000  0.000000  0.000000  -16.895646807033785  0.1133255181251057  -0.919211440802061  59.12398471231152  6.203182674604916  -6.781471541139945  3.4007409926393803  18.110817774561145  27.704060264736608  29.93777144718923  120.000000
0.03  0.000000  0.000000  0.000000  -17.181066079533814  0.2827952077418152  -0.7685950238480131  59.48425318234118  6.602813508064263  -6.602153020687576  5.006738849682905  18.561920785763675  24.880617093165515  30.008032187183538  120.000000
0.06  0.000000  0.000000  0.000000  -17.48964112645648  0.439992439944305  -0.6176852858877254  59.89346420170909  6.962367581905675  -6.392500316497177  6.622012995798077  19.038482372648932  22.026299122803177  30.18777808449917  120.000000
0.09  0.000000  0.000000  0.000000  -17.820743919689253  0.5753555389304735  -0.45714219523071187  60.365090441165044  7.302468008368813  -6.1570666482196685  8.233998834315011  19.587003281298788  19.11398045017181  30.46045084787216  120.000000
0.12  0.000000  0.000000  0.000000  -18.179807270813164  0.693708376779562  -0.28802815322691633  60.90635491065924  7.641271648518446  -5.893713436986024  9.828966475402625  20.24856883510934  16.125901756115702  30.82108569522361  120.000000
0.15  0.000000  0.000000  0.000000  -18.557181773612783  0.7953105385962237  -0.11463972369927823  61.507405615005474  7.994015483275072  -5.609093748240192  11.391284442057866  21.046766554918555  13.063650204271708  31.256366323042567  120.000000
0.18  0.000000  0.000000  0.000000  -18.946676141022714  0.886280742264077  0.05850161292076278  62.15177827420174  8.365235880328834  -5.3054741742432885  12.904576226220357  21.990034503378578  9.941033958434462  31.756146902305883  120.000000
0.21  0.000000  0.000000  0.000000  -19.330802745776886  0.9691999525685077  0.22667949876334967  62.82249476215109  8.757112102416546  -4.99077255596031  14.352129477176378  23.072548888686196  6.78336320183188  32.301513353860265  120.000000
0.24  0.000000  0.000000  0.000000  -19.695652445052705  1.0491974722543895  0.38968668151102104  63.50231765767101  9.167921785041294  -4.668112512341652  15.71956498152377  24.278989937039572  3.622905403912564  32.872712212038365  120.000000
0.27  0.000000  0.000000  0.000000  -20.02632692345166  1.1299772230361642  0.549777376501245  64.17758949730538  9.597604673480301  -4.343696061213759  16.99374088831604  25.58882516277578  0.49326814784606837  33.44091101310217  120.000000
0.3  0.000000  0.000000  0.000000  -20.316468230837806  1.2176645685052787  0.7124521752410351  64.8369750611235  10.046255196916455  -4.022506034271934  18.165731948307148  26.978796232063928  -2.5736032917057274  33.97185380450773  120.000000
0.32999999999999996  0.000000  0.000000  0.000000  -20.567497956600818  1.3149440754567696  0.8849499806639834  65.47167622583828  10.515018945392065  -3.709730188927827  19.229702695628966  28.42568947748885  -5.554361845985432  34.42346778380239  120.000000
0.36  0.000000  0.000000  0.000000  -20.79064947325515  1.4242522178631993  1.0744954375242888  66.07956696630782  11.004225379188256  -3.409518831118232  20.1848950658061  29.90894713607107  -8.43691501172495  34.7557966567027  120.000000
0.39  0.000000  0.000000  0.000000  -21.003746647262577  1.5438948779809711  1.2874024445720431  66.66155190489884  11.513147263922964  -3.125016795381509  21.033876186787495  31.410056237663486  -11.221391039250118  34.94284116027303  120.000000
0.42  0.000000  0.000000  0.000000  -21.229872827638193  1.6718704830288103  1.5276842306477436  67.22058617842565  12.039578711349375  -2.859626099942218  21.781548501257962  32.91222511104042  -13.916066610187718  35.00000056640262  120.000000
0.44999999999999996  0.000000  0.000000  0.000000  -21.492940566386007  1.805604488803696  1.7968626850475766  67.75502260458566  12.58054541405346  -2.6185642874894577  22.431727191682146  34.39836365409138  -16.531616648048818  35.00000057180365  120.000000
